<?xml version="1.0"?>
<svg width="640" height="480" xmlns="http://www.w3.org/2000/svg" xmlns:svg="http://www.w3.org/2000/svg">
 <!-- Created with SVG-edit - http://svg-edit.googlecode.com/ -->

 <g>
  <title>Layer 1</title>
  <rect stroke="#000000" id="svg_4" height="65" width="96.352782" y="329.118446" x="251.896884" stroke-linecap="null" stroke-linejoin="null" stroke-dasharray="null" stroke-width="0" fill="#e57e1d"/>
  <path id="svg_16" d="m449.39627,329.60595l-309.77171,0.51412l160.18941,-129.34212l149.5823,128.82799l0,0.00001z" stroke-linecap="null" stroke-linejoin="null" stroke-dasharray="null" stroke-width="0" stroke="#000000" fill="#7fff00"/>
  <path id="svg_17" d="m300.57164,153.18111l-129.55862,109.83259l258.68426,0l-129.12564,-109.83259z" stroke-linecap="null" stroke-linejoin="null" stroke-dasharray="null" stroke-width="0" stroke="#000000" fill="#7fff00"/>
  <path stroke="#000000" id="svg_18" d="m299.91242,101.94936l-80.19316,86.74223l160.91099,0l-80.71783,-86.74223z" stroke-linecap="null" stroke-linejoin="null" stroke-dasharray="null" stroke-width="0" fill="#7fff00"/>
  <polygon stroke="#ffff00" points="299.3425178527832,59.49670600891113 309.5746650695801,88.59586715698242 340.7322883605957,89.2235221862793 315.8984565734863,107.83548355102539 324.92290115356445,137.32256698608398 299.3425178527832,119.72622299194336 273.7622871398926,137.32256698608398 282.7867012023926,107.83548355102539 257.9529151916504,89.2235221862793 289.1104621887207,88.59586715698242 299.3425178527832,59.49670600891113 309.5746650695801,88.59586715698242 " fill="#fcfc6a" id="svg_7"/>
  <circle id="svg_21" r="11.014348" cy="209.824655" cx="324.744335" stroke-linecap="null" stroke-linejoin="null" stroke-dasharray="null" stroke-width="0" stroke="#000000" fill="#ffaaaa"/>
  <circle id="svg_23" r="11.014348" cy="248.789647" cx="229.496576" stroke-linecap="null" stroke-linejoin="null" stroke-dasharray="null" stroke-width="0" stroke="#000000" fill="#ffaaaa"/>
  <circle id="svg_24" r="11.014348" cy="263.942698" cx="349.999424" stroke-linecap="null" stroke-linejoin="null" stroke-dasharray="null" stroke-width="0" stroke="#000000" fill="#ffaaaa"/>
  <circle id="svg_25" r="11.014348" cy="330.3275" cx="168.884367" stroke-linecap="null" stroke-linejoin="null" stroke-dasharray="null" stroke-width="0" stroke="#000000" fill="#ffaaaa"/>
  <circle id="svg_26" r="11.014348" cy="191.063727" cx="233.826019" stroke-linecap="null" stroke-linejoin="null" stroke-dasharray="null" stroke-width="0" stroke="#000000" fill="#ffaaaa"/>
  <circle id="svg_27" r="11.014348" cy="331.770642" cx="433.702001" stroke-linecap="null" stroke-linejoin="null" stroke-dasharray="null" stroke-width="0" stroke="#000000" fill="#ffaaaa"/>
  <circle id="svg_28" r="11.014348" cy="289.919356" cx="274.234157" stroke-linecap="null" stroke-linejoin="null" stroke-dasharray="null" stroke-width="0" stroke="#000000" fill="#ffaaaa"/>
  <circle id="svg_29" r="11.014348" cy="193.228455" cx="361.544606" stroke-linecap="null" stroke-linejoin="null" stroke-dasharray="null" stroke-width="0" stroke="#000000" fill="#ffaaff"/>
  <circle id="svg_30" r="11.014348" cy="267.55057" cx="414.219504" stroke-linecap="null" stroke-linejoin="null" stroke-dasharray="null" stroke-width="0" stroke="#000000" fill="#ffaaff"/>
  <circle id="svg_31" r="11.014348" cy="315.174451" cx="328.352208" stroke-linecap="null" stroke-linejoin="null" stroke-dasharray="null" stroke-width="0" stroke="#000000" fill="#ffaaff"/>
  <circle id="svg_32" r="11.014348" cy="240.130763" cx="285.057773" stroke-linecap="null" stroke-linejoin="null" stroke-dasharray="null" stroke-width="0" stroke="#000000" fill="#ffaaff"/>
  <circle id="svg_34" r="11.014348" cy="266.107428" cx="186.202146" stroke-linecap="null" stroke-linejoin="null" stroke-dasharray="null" stroke-width="0" stroke="#000000" fill="#aaffff"/>
  <circle id="svg_35" r="11.014348" cy="326.719639" cx="225.888711" stroke-linecap="null" stroke-linejoin="null" stroke-dasharray="null" stroke-width="0" stroke="#000000" fill="#aaffff"/>
  <circle id="svg_36" r="11.014348" cy="159.314486" cx="328.352206" stroke-linecap="null" stroke-linejoin="null" stroke-dasharray="null" stroke-width="0" stroke="#000000" fill="#aaffff"/>
  <circle id="svg_37" r="11.014348" cy="310.845009" cx="381.027104" stroke-linecap="null" stroke-linejoin="null" stroke-dasharray="null" stroke-width="0" stroke="#000000" fill="#aaffff"/>
  <circle id="svg_38" r="11.014348" cy="237.244467" cx="376.697661" stroke-linecap="null" stroke-linejoin="null" stroke-dasharray="null" stroke-width="0" stroke="#000000" fill="#aaffff"/>
  <circle stroke="#000000" id="svg_39" r="5.96333" cy="291.362507" cx="223.3632" stroke-linecap="null" stroke-linejoin="null" stroke-dasharray="null" stroke-width="0" fill="#00ffff"/>
  <circle id="svg_40" stroke="#000000" r="5.96333" cy="276.931028" cx="312.116791" stroke-linecap="null" stroke-linejoin="null" stroke-dasharray="null" stroke-width="0" fill="#00ffff"/>
  <circle id="svg_41" stroke="#000000" r="5.96333" cy="215.597248" cx="263.049765" stroke-linecap="null" stroke-linejoin="null" stroke-dasharray="null" stroke-width="0" fill="#00ffff"/>
  <circle id="svg_42" stroke="#000000" r="5.96333" cy="332.49222" cx="403.035107" stroke-linecap="null" stroke-linejoin="null" stroke-dasharray="null" stroke-width="0" fill="#00ffff"/>
  <circle id="svg_43" stroke="#000000" r="5.96333" cy="154.985039" cx="254.390872" stroke-linecap="null" stroke-linejoin="null" stroke-dasharray="null" stroke-width="0" fill="#00ffff"/>
  <circle id="svg_44" stroke="#000000" r="5.96333" cy="330.327497" cx="273.151794" stroke-linecap="null" stroke-linejoin="null" stroke-dasharray="null" stroke-width="0" fill="#00ffff"/>
  <circle id="svg_45" stroke="#000000" r="5.96333" cy="230.028726" cx="344.587609" stroke-linecap="null" stroke-linejoin="null" stroke-dasharray="null" stroke-width="0" fill="#00ffff"/>
  <circle id="svg_46" stroke="#000000" r="5.96333" cy="165.808647" cx="354.689645" stroke-linecap="null" stroke-linejoin="null" stroke-dasharray="null" stroke-width="0" fill="#00ffff"/>
  <circle id="svg_33" r="11.014348" cy="173.745965" cx="282.171477" stroke-linecap="null" stroke-linejoin="null" stroke-dasharray="null" stroke-width="0" stroke="#000000" fill="#ffaaff"/>
 </g>
 <g>
  <title>Tinsel</title>
  <path d="m248,160c0.647339,0.704498 1.137238,1.441757 1.716003,2.084c0.585373,0.649567 1.074478,1.260208 1.505493,2.016006c0.381577,0.669098 1.167831,1.289322 1.803833,1.925323c0.622009,0.622009 1.36174,1.191498 1.807999,1.97467c0.444351,0.779816 1.304886,0.67775 2.000015,1.166672c0.714264,0.502396 1.303101,0.842422 2.017334,1.269333c0.85141,0.508911 1.373322,1.10582 2.027985,1.785324c0.558502,0.579681 1.105225,1.174942 1.954681,1.612c0.714294,0.367508 1.51239,0.694092 2.366669,1.082672c0.763092,0.347122 1.500824,0.729462 2.299988,1.084c0.800812,0.355286 1.415527,1.112854 2.135986,1.563995c0.778198,0.487305 1.592041,0.321426 2.606842,0.788666c0.814667,0.375092 1.444733,0.723663 2.278015,1.147339c0.78949,0.401413 1.704926,0.460419 2.679169,0.721329c0.612152,0.16394 1.385529,0.571777 2.395477,0.721512c0.741089,0.109879 1.815948,-0.048416 2.604523,0.341156c0.870056,0.42984 1.557159,0.713745 2.452667,0.716003c0.863312,0.002167 1.863159,-0.058395 2.647308,0.352661c0.847931,0.444489 1.700012,0.647339 2.457184,0.647339c0.890991,0 1.673492,0 2.689484,0c0.874664,0 1.727997,0 2.666687,0c0.939331,0 1.914368,0.146042 2.58667,-0.057159c0.875275,-0.264557 1.652588,-0.773743 2.5,-1.226837c0.651978,-0.348602 1.516571,-0.740997 2.279144,-1.216003c0.759674,-0.47319 1.255341,-1.110474 1.946167,-1.464005c0.826141,-0.422775 1.961609,0.094696 2.538666,-0.461334c0.499573,-0.481369 1.257355,-0.574661 2.121338,-0.574661c0.925354,0 1.971069,-0.437759 2.630676,0.085327c0.687195,0.544968 0.871765,1.171799 1.285339,1.916c0.406403,0.731308 1.513245,0.859528 1.998657,1.519501c0.504303,0.685684 0.999725,1.479431 1.574677,2.053833c0.710327,0.709656 1.546478,1.038879 2.139984,1.509338c0.738556,0.585449 1.02417,1.524323 1.721344,1.880005c0.766449,0.391037 1.381805,0.718826 2.174652,1.02533c0.81015,0.313171 1.499573,0.540756 2.305328,0.925339c0.726105,0.346558 1.694672,0.085327 2.584015,0.085327c0.899994,0 1.795502,0 2.721344,0c0.945313,0 1.778656,0 2.694641,0c0.788513,0 1.726837,0 2.604858,0c0.87915,0 1.774658,0 2.700653,0c0.878326,0 1.8591,0.30751 2.694489,-0.001328c0.720306,-0.266296 1.368011,-0.998672 2.305359,-0.998672c0.831329,0 1.742645,0 2.612,0l0.88266,0l0.858673,0l0.925323,0" id="svg_11" stroke-linecap="null" stroke-linejoin="null" stroke-dasharray="null" stroke-width="6" stroke="#d4ffaa" fill="none"/>
  <path d="m226,221c1.610672,0 2.563995,0 3.425339,0c0.931824,0 1.773911,0.033325 2.741333,0c0.830307,-0.028595 1.231003,-0.683426 1.780655,-1.357162c0.572952,-0.702286 0.607376,-1.588669 1.052673,-2.290176c0.334457,-0.526901 1,-1.009827 1,-0.131332c0,0.862671 0,1.778671 0,2.657333c0,0.837341 0.578201,1.478653 0.914673,2.320007c0.334793,0.837158 0.880539,1.459259 1.064499,2.301331c0.1922,0.879791 0.45369,1.751221 0.854156,2.5c0.423294,0.791443 0.957153,1.344208 1.388168,2.100006c0.381577,0.669098 1.187851,1.290787 1.778503,1.899994c0.573212,0.591217 0.913239,1.59967 1.569336,2.199997c0.54187,0.495819 1.434082,0.871429 2.12616,1.5c0.628159,0.570511 1.438416,1.099121 2.061676,1.409836c0.962448,0.479813 1.343094,1.153061 2.221329,1.647339c0.768967,0.432785 1.526642,0.758392 2.221497,1.442825c0.604523,0.595459 1.144989,1.338791 2.121338,1.678665c0.651108,0.226654 1.669022,0.324036 2.304001,0.73201c0.875549,0.562561 1.526642,1.021225 2.490662,1.305328c0.754089,0.222244 1.730591,0.482407 2.399994,0.88533c0.753021,0.453262 1.577728,1.132034 2.369354,1.197342c0.93689,0.077301 1.656189,0.031769 2.593811,0.501328c0.743591,0.372391 1.62085,0.5 2.520844,0.5c0.799988,0 1.700012,0 2.635986,0c0.848022,0 1.711334,0 2.717346,0c0.933319,0 1.813324,0 2.625824,0c0.959503,0 1.733582,-0.043076 2.5,-0.5c0.813843,-0.485199 1.858032,-0.230179 2.435516,-0.783997c0.562164,-0.539139 1.379578,-0.14267 2.085327,-0.726669c0.646667,-0.535126 1.037384,-1.039154 1.942841,-0.989334c0.776672,0.042725 1.341034,0.748993 2.156982,1.221329c0.682953,0.395355 1.471802,0.496475 2.28952,0.789337c0.736694,0.263855 1.324829,0.590775 2.174652,1.02533c0.696838,0.356323 1.314667,0.964005 2.140503,0.964005c0.938324,0 1.816345,0 2.695496,0c0.899994,0 1.800018,0 2.700012,0c0.899994,0 1.699982,0 2.614655,0c0.853333,0 1.717346,0.002609 2.721344,0c0.863983,-0.002258 1.780304,-0.264267 2.397339,-0.833328c0.621033,-0.572723 1.445221,-0.910126 2.266479,-1.388168c0.628082,-0.365601 0.901917,-1.37706 1.604675,-1.831177c0.751312,-0.485504 1.355957,-1.246414 2.011505,-1.66333c0.703613,-0.447479 1.120697,-1.313171 1.858673,-1.273331c0.661255,0.03569 1.093811,1.032791 1.425323,1.822662c0.305023,0.726715 0.706696,1.458984 1.389343,2.105331c0.61264,0.580078 0.953094,1.375183 1.610657,2.06134c0.587097,0.61264 1.105804,1.340164 2,1.833328c0.663177,0.365753 1.008911,1.022949 1.610657,1.766678c0.528412,0.653091 1.415649,1.162445 2.089355,1.452667c0.841766,0.362625 1.652588,0.778229 2.5,1.231323c0.651978,0.348602 1.496094,0.776245 2.210663,1.141342c0.905792,0.462799 1.589172,0.56424 2.703979,0.574661c0.885315,0.00827 1.685333,0 2.585358,0c0.899994,0 1.799988,0 2.710663,0c0.910645,0 1.589325,0 2.702667,0c0.838501,0 1.772614,0.250229 2.643829,-0.000168c0.769836,-0.221252 1.454346,-0.833084 2.342651,-1c0.795563,-0.14949 1.066833,-0.999832 1.936188,-0.999832c0.90683,0 0.762482,0.858658 0.963989,1.647339c0.219482,0.85907 0.979645,1.49646 1.610657,1.927322c0.814148,0.555893 1.532135,1.0121 2.389343,1.404495c0.734985,0.336456 1.56665,0.592834 2.221344,1.242188c0.614502,0.609497 1.408478,0.614655 2.278656,0.7995c0.843109,0.179077 1.536011,0.979156 2.415985,0.979156c0.917358,0 1.731354,0 2.658691,0c0.850647,0 1.777985,-0.004486 2.40448,-0.5l0.020844,-0.852661" id="svg_12" stroke-linecap="null" stroke-linejoin="null" stroke-dasharray="null" stroke-width="6" stroke="#d4ffaa" fill="none"/>
  <path d="m198,282c0,1.610657 -0.000092,2.5 0,3.410675c0.000092,0.910645 -0.130829,1.825012 0.285339,2.703979c0.306519,0.6474 1.087173,1.318939 1.91333,1.801331c0.696228,0.406525 1.309036,0.868835 2.022659,1.305359c0.792908,0.485046 1.315079,0.871948 1.814667,1.353333c0.577072,0.55603 1.779022,0.342102 1.964005,0.925323c0.279755,0.882019 0,1.852661 0,2.721344c0,0.862671 0,1.778656 0,2.579987c0,0.91333 0.651382,1.494537 1,2.365326c0.310852,0.776459 0.694244,1.19873 1.085327,1.918671c0.379379,0.698425 1.364578,0.761871 2.314667,0.925354c0.831924,0.143158 1.472092,0.928406 2.31601,0.989319c0.892349,0.064392 1.686432,0.114807 2.345337,0.574677c0.72171,0.503693 1.695831,0.425323 2.549332,0.425323c0.889328,0 1.789322,0 2.689331,0c0.899994,0 1.800003,0 2.699997,0c0.800003,0 1.699997,0 2.600006,0c0.899994,0 1.810654,0 2.721329,0c0.853333,0 1.793335,0 2.678665,0c0.800003,0 1.699997,0 2.600006,0c0.899994,0 1.823151,0.134155 2.733322,-0.166656c0.707718,-0.233887 1.555359,-0.804749 2.382675,-0.833344c0.930786,-0.032166 1.842758,-0.313965 2.709335,0.010681c0.706787,0.264801 0.962524,1.300537 1.741333,1.822662c0.705887,0.473236 1.627731,0.261597 2.333328,0.666656c0.798309,0.458282 1.820068,0.724426 2.5,1c0.831802,0.337128 1.713333,0.499329 2.569336,0.5c0.782501,0.00061 1.805573,-0.138123 2.730667,0.004486c0.931396,0.143585 1.468613,0.847351 2.399994,0.991028c0.889511,0.137207 1.800003,0.004486 2.699997,0.004486c0.899994,0 1.800018,0 2.700012,0c0.899994,0 1.699982,0 2.53598,0c1.012177,0 1.794678,0.002197 2.721191,0c0.94281,-0.002258 1.679474,-0.326141 2.44281,-0.716003c0.752899,-0.384521 1.802673,-0.207458 2.55719,-0.636658c0.791077,-0.449982 1.643341,-0.618134 2.476166,-0.647339c0.815491,-0.028595 1.33374,-0.831268 2.177338,-1c0.823059,-0.164642 1.213531,-1.548645 1.932159,-0.995514c0.680328,0.523682 0.62149,1.297943 1.278656,1.874023c0.666931,0.584625 1.752441,0.326843 2.342499,0.696167c0.762909,0.477509 1.807587,0.198883 2.602661,0.59198c0.646606,0.319702 1.433289,0.828003 2.3125,0.833344c0.96347,0.005859 1.670166,0 2.74234,0c0.878326,0 1.753174,0 2.657166,0c0.837341,0 1.696014,0 2.621338,0c0.936005,0 1.795502,0 2.721497,0c0.878326,0 1.753174,0 2.657166,0c0.837341,0 1.696014,0 2.621338,0c0.925323,0 1.783997,0 2.721344,0c0.863983,0 1.767975,0 2.657166,0c0.837494,0 1.751404,0.31488 2.62149,0c0.624939,-0.226166 1.04248,-1.019348 1.520844,-1.5c0.589325,-0.592163 1.019684,-1.211639 1.479156,-1.979156c0.487244,-0.813965 0.168671,-1.695923 0.536011,-2.546173c0.345886,-0.800598 0.963989,-1.399994 0.963989,-1.690674l0.221344,0.716003" id="svg_13" stroke-linecap="null" stroke-linejoin="null" stroke-dasharray="null" stroke-width="6" stroke="#d4ffaa" fill="none"/>
  <path d="m338,317c1,0 1.915985,0 2.704498,0c0.938324,0 1.816345,0 2.684845,0c0.967834,0 1.810669,0 2.71048,0c0.900177,0 1.84137,0.083527 2.464172,-0.574677c0.614471,-0.649414 0.882599,-1.479126 1.461334,-2c0.637878,-0.574097 1.33136,-1.037628 1.890656,-1.710663c0.555939,-0.669006 0.783081,-1.446655 1.509338,-2.139984c0.617767,-0.589752 1.556671,-0.575256 1.574677,0.258667c0.018799,0.870941 0.215729,1.55603 0.716003,2.250671c0.514008,0.713715 0.783997,1.415985 1.505341,2.137329c0.612,0.612 1.127716,1.378265 1.977325,1.693329c0.816803,0.302887 1.692261,0.438507 2.467987,0.918671c0.73465,0.454742 1.483887,0.919373 2.333344,1.333313c0.652283,0.317871 1.427856,0.751587 2.32132,1.054688c0.694763,0.235687 1.650909,0.717773 2.557343,0.778656c0.823975,0.055328 1.721344,0 2.600494,0c0.956848,0 1.820831,0 2.719513,0c0.885345,0 1.801331,0 2.679993,0c0.825836,0 1.721344,0 2.600494,0c0.956848,0 1.820831,0 2.720856,0c0.899811,0 1.708008,-0.091278 2.374664,-0.574677c0.717804,-0.520508 1.292053,-0.814758 1.850647,-1.389313c0.484467,-0.498322 1.083771,-0.521057 1.576019,0.247986c0.432007,0.674927 0.821472,1.251068 1.445313,1.690674c0.742859,0.523468 1.515747,0.642578 2.531677,0.903839c0.880066,0.226318 1.745697,0.453613 2.373505,0.825989c0.781708,0.463684 1.415192,1.146637 2.348175,1.291016c0.889435,0.137634 1.799988,0.004486 2.699982,0.004486c0.899994,0 1.800018,0 2.700012,0c0.899994,0 1.699982,0 2.600006,0c0.899994,0 1.799988,0 2.689331,0c0.894653,0 1.79483,0.136841 2.610657,-0.020844c0.932739,-0.180298 1.483002,-0.807129 2.221497,-1.2005c0.873993,-0.465546 1.611847,-0.778656 2.278503,-1.278656c0.666656,-0.5 1.380005,-0.8591 1.5,-1.721344c0.109772,-0.788696 0.663635,-0.65683 1,0.185333c0.311035,0.778748 1.334198,0.99884 2.149323,1.036011c0.936279,0.042694 1.445648,0.820221 2.350677,1c0.836334,0.166138 1.783997,0 2.666656,0c0.886017,0 1.78067,0 2.666687,0c0.813995,0 1.741333,0 2.666656,0c0.852661,0 2.060547,0.267059 2.463989,-0.425323c0.432678,-0.742554 0.036011,-1.796021 0.036011,-2.660004l0,-0.903992" id="svg_14" stroke-linecap="null" stroke-linejoin="null" stroke-dasharray="null" stroke-width="6" stroke="#d4ffaa" fill="none"/>
  <path d="m361,259c1,0.020844 1.493591,0.780518 2.352661,1c0.902344,0.23056 1.333191,0.495392 2,0.942841c0.7229,0.485077 1.992706,-0.420044 2.636658,0.09317c0.68338,0.544647 1.29187,0.405609 1.989838,0.963989c0.666992,0.5336 1.031525,1 1.935516,1l0.801331,0l0.931335,0" id="svg_15" stroke-linecap="null" stroke-linejoin="null" stroke-dasharray="null" stroke-width="6" stroke="#d4ffaa" fill="none"/>
 </g>
 <g>
  <title>Text</title>
  <text style="cursor: move;" font-weight="bold" xml:space="preserve" text-anchor="middle" font-family="Fantasy" font-size="24" id="svg_20" y="369" x="297" stroke-linecap="null" stroke-linejoin="null" stroke-dasharray="null" stroke-width="0" stroke="#000000" fill="#00007f">It&#x27;s beginning to look a lot like Christmas!</text>
 </g>
</svg>